<svg id="visual" viewBox="0 0 900 450" width="900" height="450" xmlns="http://www.w3.org/2000/svg" xmlns:xlink="http://www.w3.org/1999/xlink" version="1.1"><rect x="0" y="0" width="900" height="450" fill="#002233"></rect><path d="M0 252L18.8 265.3C37.7 278.7 75.3 305.3 112.8 315.8C150.3 326.3 187.7 320.7 225.2 307.7C262.7 294.7 300.3 274.3 337.8 274.8C375.3 275.3 412.7 296.7 450.2 295.7C487.7 294.7 525.3 271.3 562.8 272.2C600.3 273 637.7 298 675.2 309.8C712.7 321.7 750.3 320.3 787.8 324.8C825.3 329.3 862.7 339.7 881.3 344.8L900 350L900 451L881.3 451C862.7 451 825.3 451 787.8 451C750.3 451 712.7 451 675.2 451C637.7 451 600.3 451 562.8 451C525.3 451 487.7 451 450.2 451C412.7 451 375.3 451 337.8 451C300.3 451 262.7 451 225.2 451C187.7 451 150.3 451 112.8 451C75.3 451 37.7 451 18.8 451L0 451Z" fill="#0066FF" stroke-linecap="round" stroke-linejoin="miter"></path></svg>